HIERARCHY
ROOT Hips
{
	OFFSET 0.000000 71.427986 0.000000
	CHANNELS 6 Xposition Yposition Zposition Xrotation Yrotation Zrotation
	JOINT Pelvis
	{
		OFFSET 0.000000 0.000000 0.000000
		CHANNELS 3 Xrotation Yrotation Zrotation
		JOINT LeftUpLeg
		{
			OFFSET 6.797100 -2.508499 -1.318700
			CHANNELS 3 Xrotation Yrotation Zrotation
			JOINT LeftLeg
			{
				OFFSET 0.069008 -29.241863 0.690200
				CHANNELS 3 Xrotation Yrotation Zrotation
				JOINT LeftFoot
				{
					OFFSET -0.069008 -29.568123 -0.266800
					CHANNELS 3 Xrotation Yrotation Zrotation
					JOINT LeftToeBase
					{
						OFFSET 3.145500 -8.631000 16.059900
						CHANNELS 3 Xrotation Yrotation Zrotation
						End Site
						{
							OFFSET 0.000000 18.501587 0.000000
						}
					}
				}
			}
			JOINT Left_ShortSleeve
			{
				OFFSET 0.265923 -10.480953 1.153800
				CHANNELS 3 Xrotation Yrotation Zrotation
				End Site
				{
					OFFSET 1.725763 19.823879 0.000000
				}
			}
		}
		JOINT RightUpLeg
		{
			OFFSET -6.797100 -2.508499 -1.318700
			CHANNELS 3 Xrotation Yrotation Zrotation
			JOINT RightLeg
			{
				OFFSET -0.082453 -29.241932 0.688000
				CHANNELS 3 Xrotation Yrotation Zrotation
				JOINT RightFoot
				{
					OFFSET 0.082453 -29.568058 -0.264600
					CHANNELS 3 Xrotation Yrotation Zrotation
					JOINT RightToeBase
					{
						OFFSET -3.115300 -8.682800 16.113400
						CHANNELS 3 Xrotation Yrotation Zrotation
						End Site
						{
							OFFSET 0.000000 18.567114 0.000000
						}
					}
				}
			}
			JOINT Right_ShortSleeve
			{
				OFFSET -0.265923 -10.480953 1.153800
				CHANNELS 3 Xrotation Yrotation Zrotation
				End Site
				{
					OFFSET -1.725766 19.823910 0.000000
				}
			}
		}
	}
	JOINT Spine
	{
		OFFSET 0.000000 13.368103 0.470500
		CHANNELS 3 Xrotation Yrotation Zrotation
		JOINT Spine1
		{
			OFFSET 0.147000 13.837402 0.538800
			CHANNELS 3 Xrotation Yrotation Zrotation
			JOINT Spine2
			{
				OFFSET 0.168000 16.242897 -1.435500
				CHANNELS 3 Xrotation Yrotation Zrotation
				JOINT Neck
				{
					OFFSET 0.217200 18.631500 -1.679100
					CHANNELS 3 Xrotation Yrotation Zrotation
					JOINT Head
					{
						OFFSET 0.000000 6.599396 1.385900
						CHANNELS 3 Xrotation Yrotation Zrotation
						JOINT Hat
						{
							OFFSET -0.532200 27.220596 -10.096100
							CHANNELS 3 Xrotation Yrotation Zrotation
							End Site
							{
								OFFSET 0.000000 22.029861 0.000000
							}
						}
						JOINT HairD
						{
							OFFSET -10.777400 17.437393 -1.325900
							CHANNELS 3 Xrotation Yrotation Zrotation
							JOINT HairD1
							{
								OFFSET -3.290299 -11.051193 1.062200
								CHANNELS 3 Xrotation Yrotation Zrotation
								End Site
								{
									OFFSET 0.000000 11.579437 0.000000
								}
							}
						}
						JOINT HairB
						{
							OFFSET -10.777400 17.437393 1.467900
							CHANNELS 3 Xrotation Yrotation Zrotation
							JOINT HairB1
							{
								OFFSET -1.561200 -12.956299 3.590200
								CHANNELS 3 Xrotation Yrotation Zrotation
								End Site
								{
									OFFSET 0.000000 13.534866 0.000000
								}
							}
						}
						JOINT HairA
						{
							OFFSET 9.713100 17.437393 1.467900
							CHANNELS 3 Xrotation Yrotation Zrotation
							JOINT HairA1
							{
								OFFSET 1.561200 -12.956299 3.590200
								CHANNELS 3 Xrotation Yrotation Zrotation
								End Site
								{
									OFFSET 0.000000 13.534866 0.000000
								}
							}
						}
						JOINT HairC
						{
							OFFSET 9.713100 17.437393 -1.325900
							CHANNELS 3 Xrotation Yrotation Zrotation
							JOINT HairC1
							{
								OFFSET 3.290300 -11.051193 1.062200
								CHANNELS 3 Xrotation Yrotation Zrotation
								End Site
								{
									OFFSET 0.000000 11.579437 0.000000
								}
							}
						}
					}
				}
				JOINT LeftShoulder
				{
					OFFSET 5.101800 15.108002 -2.763700
					CHANNELS 3 Xrotation Yrotation Zrotation
					JOINT LeftArm
					{
						OFFSET 9.825497 2.506317 -1.597400
						CHANNELS 3 Xrotation Yrotation Zrotation
						JOINT LeftForeArm
						{
							OFFSET 21.966244 0.000000 0.000000
							CHANNELS 3 Xrotation Yrotation Zrotation
							JOINT LeftHand
							{
								OFFSET 33.879036 0.000000 0.000000
								CHANNELS 3 Xrotation Yrotation Zrotation
								JOINT LeftHandThumb1
								{
									OFFSET 6.715286 -2.359680 3.363841
									CHANNELS 3 Xrotation Yrotation Zrotation
									JOINT LeftHandThumb2
									{
										OFFSET 2.507072 -1.447464 1.447461
										CHANNELS 3 Xrotation Yrotation Zrotation
										JOINT LeftHandThumb3
										{
											OFFSET 2.898338 -1.673355 1.673357
											CHANNELS 3 Xrotation Yrotation Zrotation
											End Site
											{
												OFFSET -0.295959 3.727692 -0.131651
											}
										}
									}
								}
								JOINT LeftHandIndex1
								{
									OFFSET 14.190811 -0.254547 3.840278
									CHANNELS 3 Xrotation Yrotation Zrotation
									JOINT LeftHandIndex2
									{
										OFFSET 3.551727 0.000000 -0.000000
										CHANNELS 3 Xrotation Yrotation Zrotation
										JOINT LeftHandIndex3
										{
											OFFSET 2.894196 0.000000 0.000000
											CHANNELS 3 Xrotation Yrotation Zrotation
											End Site
											{
												OFFSET -1.000603 2.690872 0.366626
											}
										}
									}
								}
								JOINT LeftHandMiddle1
								{
									OFFSET 13.776489 0.000000 0.000000
									CHANNELS 3 Xrotation Yrotation Zrotation
									JOINT LeftHandMiddle2
									{
										OFFSET 3.438232 0.000000 0.000000
										CHANNELS 3 Xrotation Yrotation Zrotation
										JOINT LeftHandMiddle3
										{
											OFFSET 3.691551 0.000000 0.000000
											CHANNELS 3 Xrotation Yrotation Zrotation
											End Site
											{
												OFFSET -1.082298 3.499527 0.457670
											}
										}
									}
								}
								JOINT LeftHandRing1
								{
									OFFSET 13.966164 -0.268127 -3.067488
									CHANNELS 3 Xrotation Yrotation Zrotation
									JOINT LeftHandRing2
									{
										OFFSET 3.162567 0.000000 0.000000
										CHANNELS 3 Xrotation Yrotation Zrotation
										JOINT LeftHandRing3
										{
											OFFSET 3.324348 0.000000 0.000000
											CHANNELS 3 Xrotation Yrotation Zrotation
											End Site
											{
												OFFSET -0.861900 3.184998 0.405154
											}
										}
									}
								}
								JOINT LeftHandPinky1
								{
									OFFSET 13.131393 -0.168503 -5.746925
									CHANNELS 3 Xrotation Yrotation Zrotation
									JOINT LeftHandPinky2
									{
										OFFSET 2.849182 0.000000 0.000000
										CHANNELS 3 Xrotation Yrotation Zrotation
										JOINT LeftHandPinky3
										{
											OFFSET 2.805038 0.000000 0.000000
											CHANNELS 3 Xrotation Yrotation Zrotation
											End Site
											{
												OFFSET -0.882500 2.642609 0.325652
											}
										}
									}
								}
							}
							JOINT Left_Sleeve
							{
								OFFSET 6.592125 -0.646545 0.805568
								CHANNELS 3 Xrotation Yrotation Zrotation
								End Site
								{
									OFFSET -0.000179 20.275787 -0.000000
								}
							}
						}
					}
				}
				JOINT RightShoulder
				{
					OFFSET -5.731700 15.108002 -2.763700
					CHANNELS 3 Xrotation Yrotation Zrotation
					JOINT RightArm
					{
						OFFSET -9.825497 2.506317 -1.597400
						CHANNELS 3 Xrotation Yrotation Zrotation
						JOINT RightForeArm
						{
							OFFSET -21.966242 0.000000 0.000000
							CHANNELS 3 Xrotation Yrotation Zrotation
							JOINT RightHand
							{
								OFFSET -33.879032 0.000000 0.000000
								CHANNELS 3 Xrotation Yrotation Zrotation
								JOINT RightHandThumb1
								{
									OFFSET -6.715286 -2.359680 3.363841
									CHANNELS 3 Xrotation Yrotation Zrotation
									JOINT RightHandThumb2
									{
										OFFSET -2.507072 -1.447464 1.447461
										CHANNELS 3 Xrotation Yrotation Zrotation
										JOINT RightHandThumb3
										{
											OFFSET -2.898338 -1.673355 1.673357
											CHANNELS 3 Xrotation Yrotation Zrotation
											End Site
											{
												OFFSET 0.295959 3.727692 -0.131651
											}
										}
									}
								}
								JOINT RightHandIndex1
								{
									OFFSET -14.190811 -0.254547 3.840278
									CHANNELS 3 Xrotation Yrotation Zrotation
									JOINT RightHandIndex2
									{
										OFFSET -3.551727 0.000000 -0.000000
										CHANNELS 3 Xrotation Yrotation Zrotation
										JOINT RightHandIndex3
										{
											OFFSET -2.894196 0.000000 0.000000
											CHANNELS 3 Xrotation Yrotation Zrotation
											End Site
											{
												OFFSET 1.000603 2.690872 0.366626
											}
										}
									}
								}
								JOINT RightHandMiddle1
								{
									OFFSET -13.776489 0.000000 0.000000
									CHANNELS 3 Xrotation Yrotation Zrotation
									JOINT RightHandMiddle2
									{
										OFFSET -3.438232 0.000000 0.000000
										CHANNELS 3 Xrotation Yrotation Zrotation
										JOINT RightHandMiddle3
										{
											OFFSET -3.691551 0.000000 0.000000
											CHANNELS 3 Xrotation Yrotation Zrotation
											End Site
											{
												OFFSET 1.082298 3.499527 0.457670
											}
										}
									}
								}
								JOINT RightHandRing1
								{
									OFFSET -13.966164 -0.268127 -3.067488
									CHANNELS 3 Xrotation Yrotation Zrotation
									JOINT RightHandRing2
									{
										OFFSET -3.162567 0.000000 0.000000
										CHANNELS 3 Xrotation Yrotation Zrotation
										JOINT RightHandRing3
										{
											OFFSET -3.324348 0.000000 0.000000
											CHANNELS 3 Xrotation Yrotation Zrotation
											End Site
											{
												OFFSET 0.861900 3.184998 0.405154
											}
										}
									}
								}
								JOINT RightHandPinky1
								{
									OFFSET -13.131393 -0.168503 -5.746925
									CHANNELS 3 Xrotation Yrotation Zrotation
									JOINT RightHandPinky2
									{
										OFFSET -2.849182 0.000000 0.000000
										CHANNELS 3 Xrotation Yrotation Zrotation
										JOINT RightHandPinky3
										{
											OFFSET -2.805038 0.000000 0.000000
											CHANNELS 3 Xrotation Yrotation Zrotation
											End Site
											{
												OFFSET 0.882500 2.642609 0.325652
											}
										}
									}
								}
							}
							JOINT Right_Sleeve
							{
								OFFSET -6.592125 -0.646545 0.805568
								CHANNELS 3 Xrotation Yrotation Zrotation
								End Site
								{
									OFFSET 0.000179 20.275787 -0.000000
								}
							}
						}
					}
				}
				JOINT Bind_Right_JacketString
				{
					OFFSET -3.534800 11.969597 7.200700
					CHANNELS 3 Xrotation Yrotation Zrotation
					JOINT Bind_Right_JacketString1
					{
						OFFSET -0.319900 -6.102600 2.794100
						CHANNELS 3 Xrotation Yrotation Zrotation
						End Site
						{
							OFFSET 0.000000 6.719452 0.000000
						}
					}
				}
				JOINT Bind_Left_JacketString
				{
					OFFSET 2.904800 11.969597 7.200700
					CHANNELS 3 Xrotation Yrotation Zrotation
					JOINT Bind_Left_JacketString1
					{
						OFFSET 0.364800 -5.904503 3.186800
						CHANNELS 3 Xrotation Yrotation Zrotation
						End Site
						{
							OFFSET 0.000000 6.719513 0.000000
						}
					}
				}
				JOINT HairE
				{
					OFFSET 5.915200 17.612701 -11.592200
					CHANNELS 3 Xrotation Yrotation Zrotation
					JOINT HairE1
					{
						OFFSET 0.289200 -7.171898 -1.284500
						CHANNELS 3 Xrotation Yrotation Zrotation
						End Site
						{
							OFFSET 0.000000 7.291756 0.000000
						}
					}
				}
				JOINT HairF
				{
					OFFSET -0.864800 17.612701 -11.592200
					CHANNELS 3 Xrotation Yrotation Zrotation
					JOINT HairF1
					{
						OFFSET 0.000000 -14.087097 -2.127501
						CHANNELS 3 Xrotation Yrotation Zrotation
						End Site
						{
							OFFSET 0.000000 14.246841 0.000000
						}
					}
				}
				JOINT HairG
				{
					OFFSET -8.087700 17.612701 -11.592200
					CHANNELS 3 Xrotation Yrotation Zrotation
					JOINT HairG1
					{
						OFFSET -0.293600 -6.081398 -0.910100
						CHANNELS 3 Xrotation Yrotation Zrotation
						End Site
						{
							OFFSET 0.000000 6.156120 0.000000
						}
					}
				}
			}
		}
	}
	JOINT Pouch
	{
		OFFSET 0.000000 4.394501 10.847300
		CHANNELS 3 Xrotation Yrotation Zrotation
		End Site
		{
			OFFSET 0.000000 21.880577 0.000000
		}
	}
	JOINT Bag
	{
		OFFSET -13.229000 4.813004 -0.593300
		CHANNELS 3 Xrotation Yrotation Zrotation
		End Site
		{
			OFFSET 0.000000 21.880577 0.000000
		}
	}
	JOINT OccupyGuyFacialAnim_Joint
	{
		OFFSET 1.000000 -70.206398 -1.655000
		CHANNELS 3 Xrotation Yrotation Zrotation
		End Site
		{
			OFFSET 0.000000 21.880577 0.000000
		}
	}
}
MOTION
Frames: 4
Frame Time: 0.016667
-0.228233 70.994881 0.959845 2.828109 -5.511797 -1.413043 -0.000000 -0.000000 -0.000000 -15.167198 17.469203 10.156726 17.409121 9.801611 4.640552 -4.695937 3.307951 -10.281299 0.000000 -0.000000 -0.000000 -0.000001 0.000000 -0.000000 -12.465689 -21.469077 -4.521481 18.094669 9.975434 -2.990721 -8.882941 0.987819 3.963605 -0.000000 -0.000000 0.000000 -0.000000 -0.000001 -0.000000 -0.409737 -1.026650 1.266676 -1.124193 -0.763622 0.960462 -1.125715 -0.723789 0.985440 -4.895965 1.540609 -0.449521 -0.934612 6.880853 -0.774390 -0.000000 -0.000000 0.000000 -0.000000 -0.000000 0.000000 -0.000000 -0.000000 0.000000 -0.000000 -0.000000 0.000000 -0.000000 0.000000 0.000000 -0.000000 -0.000000 0.000000 -0.000000 0.000000 0.000000 -0.000000 -0.000000 0.000000 -0.000000 -0.000000 0.000000 -1.469254 10.517226 -4.984830 43.879662 -68.213687 -24.791770 -0.000003 -21.268115 -0.000013 -25.251725 7.009027 0.097459 -3.405770 19.076280 14.453264 15.249465 14.620662 -5.800665 -0.000002 0.000001 -0.000001 0.380313 2.260837 -19.095162 0.158444 1.471498 -12.290091 -0.000000 0.000001 -0.000002 0.379683 2.259010 -19.079160 0.158853 1.473381 -12.306094 0.000003 0.000000 0.000002 0.380311 2.260818 -19.095168 0.158446 1.471500 -12.290078 -0.000002 0.000001 -0.000002 1.696006 6.096999 -18.680658 0.153599 -2.584205 -12.789168 -0.000003 -0.000000 0.000001 -0.000000 -0.000001 0.000003 3.669363 5.665987 1.464134 -1.701505 36.578658 65.584938 -0.000006 22.959771 0.000028 -19.091376 -11.054784 9.870823 1.944040 -20.994847 -11.060311 4.637206 -8.634128 -0.225391 0.000002 0.000000 0.000002 0.194542 -1.636476 13.558137 0.162594 -1.497883 12.390173 0.000001 -0.000001 -0.000003 0.194540 -1.636478 13.558144 0.162596 -1.497883 12.390163 -0.000000 0.000001 0.000001 0.194537 -1.636466 13.558142 0.162600 -1.497886 12.390175 -0.000004 -0.000001 0.000000 0.194540 -1.636481 13.558134 0.162598 -1.497882 12.390171 0.000001 -0.000000 0.000000 0.000005 -0.000001 0.000001 0.000000 0.000000 0.000000 0.000000 0.000001 0.000000 0.000000 0.000000 0.000000 0.000000 0.000000 0.000000 0.000000 0.000000 0.000000 0.000000 0.000001 0.000000 0.000000 0.000000 0.000000 0.000000 0.000000 0.000000 0.000000 0.000000 0.000000 0.000000 0.000001 0.000000 -0.000000 -0.000000 -0.000000 -0.000000 -0.000000 -0.000000 -0.000000 -0.000000 -0.000000 
-0.210288 70.995178 0.954719 2.805599 -5.471026 -1.390015 0.000000 0.000000 -0.000000 -15.144700 17.465586 10.130043 17.418075 9.796691 4.597236 -4.703505 3.280037 -10.238352 -0.000000 0.000000 -0.000000 -0.000000 -0.000001 -0.000000 -12.478743 -21.497047 -4.586266 18.121404 9.975379 -2.980536 -8.890426 0.992102 3.970906 0.000000 0.000000 0.000000 0.000001 -0.000001 -0.000000 -0.419283 -1.066793 1.262724 -1.133012 -0.794373 0.957289 -1.134493 -0.754703 0.983291 -4.912534 1.560738 -0.428862 -0.893666 7.011522 -0.803163 -0.000000 -0.000000 -0.000000 -0.000000 -0.000000 -0.000000 -0.000000 -0.000000 0.000000 -0.000000 -0.000000 -0.000000 -0.000000 0.000000 -0.000000 -0.000000 -0.000000 -0.000000 -0.000000 0.000000 -0.000000 -0.000000 -0.000000 -0.000000 -0.000000 -0.000000 -0.000000 -1.470419 10.513381 -4.967265 43.640196 -68.242831 -25.097590 -0.000015 -21.297095 -0.000000 -25.352238 7.076668 0.079862 -3.405770 19.076286 14.453269 15.249456 14.620664 -5.800664 0.000002 -0.000003 -0.000004 0.380311 2.260837 -19.095163 0.158444 1.471499 -12.290090 0.000002 0.000001 0.000002 0.379684 2.259008 -19.079160 0.158850 1.473381 -12.306090 -0.000003 0.000001 -0.000001 0.380307 2.260820 -19.095170 0.158446 1.471502 -12.290077 -0.000001 0.000001 -0.000001 1.696006 6.096997 -18.680660 0.153599 -2.584208 -12.789164 0.000001 -0.000001 0.000001 0.000000 -0.000000 -0.000001 3.665457 5.656878 1.475269 -1.703461 36.697527 65.596706 -0.000002 22.913190 0.000011 -18.957480 -10.909264 10.116160 1.959284 -20.982041 -11.038623 4.637205 -8.634130 -0.225398 -0.000000 -0.000001 0.000001 0.194543 -1.636471 13.558112 0.162594 -1.497875 12.390221 0.000001 0.000000 -0.000001 0.194544 -1.636470 13.558112 0.162603 -1.497878 12.390210 0.000001 0.000002 0.000001 0.194547 -1.636456 13.558104 0.162592 -1.497883 12.390205 0.000000 0.000000 -0.000001 0.194543 -1.636464 13.558108 0.162597 -1.497884 12.390206 -0.000000 0.000003 0.000001 0.000001 -0.000003 0.000003 0.000000 0.000001 -0.000000 0.000000 0.000001 -0.000000 0.000000 0.000001 -0.000000 0.000000 0.000001 -0.000000 0.000000 0.000001 -0.000000 0.000000 0.000001 -0.000000 0.000000 0.000001 -0.000000 0.000000 0.000001 -0.000000 0.000000 0.000001 -0.000000 0.000000 0.000001 -0.000000 0.000000 0.000000 -0.000000 0.000000 0.000000 -0.000000 0.000000 0.000000 -0.000000 
-0.190714 70.994766 0.949466 2.785803 -5.433274 -1.358848 0.000000 -0.000000 -0.000000 -15.122093 17.465258 10.091764 17.426767 9.791759 4.558150 -4.710573 3.253658 -10.195523 0.000000 0.000000 -0.000000 0.000000 -0.000000 -0.000000 -12.507743 -21.527018 -4.665030 18.163249 9.975374 -2.970508 -8.905483 1.002845 3.978860 0.000000 -0.000002 0.000000 0.000000 -0.000002 -0.000001 -0.424242 -1.104456 1.255684 -1.138106 -0.823448 0.951492 -1.139511 -0.784102 0.978433 -4.937642 1.583682 -0.410673 -0.868419 7.152527 -0.837619 -0.000000 0.000000 -0.000000 -0.000000 0.000000 -0.000000 -0.000000 0.000000 -0.000000 -0.000000 0.000000 0.000000 -0.000000 0.000000 0.000000 -0.000000 0.000000 0.000000 -0.000000 0.000000 0.000000 -0.000000 0.000000 -0.000000 -0.000000 0.000000 -0.000000 -1.471645 10.508769 -4.946811 43.432077 -68.283088 -25.363716 0.000006 -21.330148 -0.000002 -25.465235 7.139498 0.050424 -3.405774 19.076276 14.453268 15.249458 14.620662 -5.800666 0.000002 0.000003 0.000001 0.380310 2.260836 -19.095162 0.158440 1.471497 -12.290091 0.000002 0.000001 -0.000002 0.379683 2.259009 -19.079157 0.158853 1.473382 -12.306089 -0.000002 0.000001 -0.000003 0.380306 2.260821 -19.095170 0.158448 1.471505 -12.290082 -0.000002 0.000000 -0.000001 1.696002 6.096997 -18.680658 0.153594 -2.584207 -12.789170 0.000002 0.000000 0.000001 0.000000 0.000000 -0.000003 3.663050 5.650922 1.476512 -1.717205 36.859573 65.610319 -0.000018 22.842787 -0.000012 -18.751849 -10.780418 10.391278 2.004027 -20.944352 -10.974934 4.637209 -8.634128 -0.225409 -0.000002 -0.000001 0.000001 0.194547 -1.636486 13.558133 0.162604 -1.497874 12.390192 -0.000001 -0.000001 -0.000003 0.194544 -1.636480 13.558136 0.162609 -1.497876 12.390202 0.000002 0.000001 -0.000001 0.194547 -1.636470 13.558122 0.162607 -1.497877 12.390202 0.000000 0.000003 -0.000001 0.194549 -1.636477 13.558130 0.162603 -1.497883 12.390197 0.000001 0.000003 0.000003 0.000002 -0.000000 0.000001 -0.000000 0.000000 0.000000 -0.000000 -0.000000 -0.000000 -0.000000 0.000000 0.000000 -0.000000 0.000000 0.000000 -0.000000 0.000000 0.000000 -0.000000 -0.000000 0.000000 -0.000000 0.000000 0.000000 -0.000000 0.000000 0.000000 -0.000000 0.000000 0.000000 -0.000000 -0.000000 0.000000 0.000000 -0.000000 -0.000000 0.000000 -0.000000 -0.000000 0.000000 -0.000000 -0.000000 
-0.167476 70.993332 0.944047 2.774293 -5.405322 -1.314003 -0.000000 0.000000 -0.000000 -15.101260 17.482107 10.032913 17.429034 9.787530 4.530237 -4.718145 3.224706 -10.154136 0.000000 0.000000 -0.000000 0.000000 -0.000001 -0.000000 -12.566692 -21.548844 -4.765775 18.228525 9.975320 -2.959916 -8.927907 1.018505 3.988098 0.000000 -0.000001 -0.000000 -0.000000 0.000000 -0.000001 -0.422729 -1.137809 1.244419 -1.138050 -0.849447 0.942093 -1.139338 -0.810646 0.969838 -4.977106 1.608953 -0.396729 -0.867554 7.298595 -0.878810 -0.000000 0.000000 -0.000000 -0.000000 0.000000 -0.000000 -0.000000 0.000000 0.000000 -0.000000 0.000000 0.000000 -0.000000 0.000000 0.000000 -0.000000 0.000000 0.000000 -0.000000 0.000000 0.000000 -0.000000 0.000000 -0.000000 -0.000000 0.000000 -0.000000 -1.472791 10.501847 -4.921264 43.262835 -68.342285 -25.576258 -0.000013 -21.363949 -0.000020 -25.588662 7.196878 -0.002518 -3.405776 19.076285 14.453268 15.249463 14.620662 -5.800665 -0.000002 -0.000004 -0.000004 0.380307 2.260837 -19.095162 0.158446 1.471496 -12.290088 0.000006 0.000001 0.000000 0.379683 2.259009 -19.079160 0.158855 1.473380 -12.306089 0.000005 0.000001 -0.000001 0.380310 2.260818 -19.095170 0.158447 1.471500 -12.290079 0.000002 0.000000 -0.000003 1.696004 6.096996 -18.680661 0.153600 -2.584207 -12.789166 -0.000001 -0.000001 0.000001 0.000000 -0.000001 -0.000001 3.662694 5.649605 1.468053 -1.746179 37.070674 65.621562 -0.000014 22.738571 0.000014 -18.460270 -10.670040 10.687684 2.076818 -20.882769 -10.871398 4.637205 -8.634122 -0.225390 -0.000002 0.000000 0.000001 0.194549 -1.636479 13.558101 0.162593 -1.497860 12.390212 0.000003 -0.000001 0.000004 0.194548 -1.636473 13.558101 0.162602 -1.497872 12.390213 -0.000002 0.000001 -0.000001 0.194546 -1.636464 13.558107 0.162596 -1.497873 12.390211 -0.000003 -0.000001 -0.000001 0.194550 -1.636472 13.558107 0.162601 -1.497873 12.390192 -0.000001 0.000000 0.000002 0.000002 -0.000000 -0.000001 -0.000000 0.000001 -0.000000 -0.000000 -0.000000 -0.000000 -0.000000 0.000001 -0.000000 -0.000000 0.000001 -0.000000 -0.000000 0.000001 -0.000000 -0.000000 -0.000000 -0.000000 -0.000000 0.000001 -0.000000 -0.000000 0.000001 -0.000000 -0.000000 0.000001 -0.000000 -0.000000 -0.000000 -0.000000 -0.000000 0.000000 -0.000000 -0.000000 0.000000 -0.000000 -0.000000 0.000000 -0.000000 
